<svg xmlns="http://www.w3.org/2000/svg" viewBox="0 0 64 64">
  <defs><linearGradient id="g" x1="0" y1="0" x2="0" y2="1"><stop offset="0" stop-color="#8a6ee0"></stop><stop offset="1" stop-color="#5d3fb0"></stop></linearGradient></defs>
  <rect width="64" height="64" rx="14" fill="url(#g)"></rect>
  <g fill="#ffce3a">
    <rect x="21.2" y="14" width="7.2" height="7.2"></rect><rect x="35.6" y="14" width="7.2" height="7.2"></rect>
    <rect x="14" y="21.2" width="36" height="7.2"></rect>
    <rect x="14" y="28.4" width="36" height="7.2"></rect>
    <rect x="21.2" y="35.6" width="21.6" height="7.2"></rect>
    <rect x="28.4" y="42.8" width="7.2" height="7.2"></rect>
  </g>
  <g stroke="#ffffff" stroke-width="1.4" opacity=".55">
    <line x1="21.2" y1="14" x2="21.2" y2="50"></line><line x1="28.4" y1="14" x2="28.4" y2="50"></line>
    <line x1="35.6" y1="14" x2="35.6" y2="50"></line><line x1="42.8" y1="14" x2="42.8" y2="50"></line>
    <line x1="14" y1="21.2" x2="50" y2="21.2"></line><line x1="14" y1="28.4" x2="50" y2="28.4"></line>
    <line x1="14" y1="35.6" x2="50" y2="35.6"></line><line x1="14" y1="42.8" x2="50" y2="42.8"></line>
  </g>
  <rect x="14" y="14" width="36" height="36" rx="4" fill="none" stroke="#ffffff" stroke-width="3.2"></rect>
</svg>
